<?xml version="1.0" encoding="utf-8"?>
<!-- Generator: Adobe Illustrator 17.0.0, SVG Export Plug-In . SVG Version: 6.00 Build 0)  -->
<!DOCTYPE svg PUBLIC "-//W3C//DTD SVG 1.1//EN" "http://www.w3.org/Graphics/SVG/1.1/DTD/svg11.dtd">
<svg version="1.1" id="Layer_1" xmlns="http://www.w3.org/2000/svg" xmlns:xlink="http://www.w3.org/1999/xlink" x="0px" y="0px"
	 width="360px" height="72px" viewBox="0 0 360 72" enable-background="new 0 0 360 72" xml:space="preserve">
<g>
	<path fill="#281946" d="M45.711,19.959c-1.237,0-2.244,1.005-2.244,2.243c0,1.238,1.007,2.242,2.244,2.242
		c1.238,0,2.243-1.004,2.243-2.242C47.954,20.964,46.95,19.959,45.711,19.959z M39.085,19.959c-1.238,0-2.243,1.005-2.243,2.243
		c0,1.238,1.004,2.242,2.243,2.242c1.238,0,2.242-1.004,2.242-2.242C41.327,20.964,40.323,19.959,39.085,19.959z M52.337,39.838
		c-1.239,0-2.242,1.004-2.242,2.236c0,1.244,1.003,2.247,2.242,2.247c1.238,0,2.243-1.004,2.243-2.247
		C54.58,40.842,53.575,39.838,52.337,39.838z M52.337,46.458c-1.239,0-2.242,1.005-2.242,2.236c0,1.245,1.003,2.248,2.242,2.248
		c1.238,0,2.243-1.004,2.243-2.248C54.58,47.463,53.575,46.458,52.337,46.458z M83.728,19.959c-1.244,0-2.249,1.005-2.249,2.243
		c0,1.238,1.005,2.242,2.249,2.242c1.231,0,2.237-1.004,2.237-2.242C85.965,20.964,84.96,19.959,83.728,19.959z M83.728,26.585
		c-1.244,0-2.249,1.006-2.249,2.243c0,1.238,1.005,2.243,2.249,2.243c1.231,0,2.237-1.005,2.237-2.243
		C85.965,27.591,84.96,26.585,83.728,26.585z M151.516,19.959c-1.238,0-2.243,1.005-2.243,2.243c0,1.238,1.005,2.242,2.243,2.242
		c1.237,0,2.243-1.004,2.243-2.242C153.759,20.964,152.753,19.959,151.516,19.959z M158.142,19.959
		c-1.239,0-2.243,1.005-2.243,2.243c0,1.238,1.004,2.242,2.243,2.242c1.238,0,2.243-1.004,2.243-2.242
		C160.385,20.964,159.38,19.959,158.142,19.959z M158.142,46.458c-1.239,0-2.243,1.005-2.243,2.243c0,1.237,1.004,2.242,2.243,2.242
		c1.238,0,2.243-1.005,2.243-2.242C160.385,47.463,159.38,46.458,158.142,46.458z M164.769,46.458c-0.592,0-1.167,0.239-1.585,0.658
		c-0.419,0.419-0.658,0.999-0.658,1.59c0,0.586,0.238,1.168,0.658,1.58c0.418,0.418,0.993,0.657,1.585,0.657
		c0.585,0,1.166-0.239,1.584-0.657c0.418-0.412,0.658-0.993,0.658-1.58c0-0.591-0.24-1.171-0.658-1.59
		C165.934,46.697,165.353,46.458,164.769,46.458z M164.769,19.959c-1.238,0-2.243,1.005-2.243,2.243
		c0,1.238,1.005,2.242,2.243,2.242c1.238,0,2.242-1.004,2.242-2.242C167.011,20.964,166.006,19.959,164.769,19.959z M144.889,46.464
		c-1.238,0-2.242,1.005-2.242,2.242c0,1.245,1.004,2.243,2.242,2.243s2.243-0.998,2.243-2.243
		C147.132,47.468,146.128,46.464,144.889,46.464z M151.516,46.458c-1.238,0-2.243,1.005-2.243,2.243
		c0,1.237,1.005,2.242,2.243,2.242c1.237,0,2.243-1.005,2.243-2.242C153.759,47.463,152.753,46.458,151.516,46.458z M144.889,39.833
		c-1.238,0-2.242,1.003-2.242,2.242c0,1.245,1.004,2.242,2.242,2.242s2.243-0.998,2.243-2.242
		C147.132,40.836,146.128,39.833,144.889,39.833z M321.566,46.458c-1.238,0-2.242,1.005-2.242,2.243
		c0,1.238,1.004,2.242,2.242,2.242c1.237,0,2.242-1.004,2.242-2.242C323.809,47.463,322.803,46.458,321.566,46.458z M301.689,19.959
		c-1.24,0-2.244,1.005-2.244,2.243c0,1.238,1.005,2.242,2.244,2.242c1.237,0,2.241-1.004,2.241-2.242
		C303.931,20.964,302.926,19.959,301.689,19.959z M301.689,26.585c-1.24,0-2.244,1.007-2.244,2.243c0,1.238,1.005,2.243,2.244,2.243
		c1.237,0,2.241-1.005,2.241-2.243C303.931,27.591,302.926,26.585,301.689,26.585z M317.182,48.701c0-1.238-1.005-2.243-2.242-2.243
		c-1.238,0-2.243,1.005-2.243,2.243c0,1.237,1.005,2.242,2.243,2.242C316.177,50.943,317.182,49.938,317.182,48.701z
		 M277.731,21.335c-1.123-0.508-2.457-0.013-2.966,1.116c-0.514,1.126-0.011,2.46,1.113,2.967h0.005
		c0.3,0.139,0.618,0.203,0.922,0.203c0.854,0,1.667-0.491,2.045-1.321C279.363,23.176,278.861,21.848,277.731,21.335z
		 M260.986,44.013c-0.813,0.937-0.712,2.349,0.227,3.162c0.425,0.366,0.946,0.545,1.466,0.545c0.627,0,1.255-0.262,1.697-0.772
		c0.808-0.938,0.707-2.355-0.227-3.162C263.21,42.97,261.793,43.072,260.986,44.013z M260.784,38.575
		c-0.353-1.188-1.597-1.871-2.788-1.519c-1.184,0.354-1.866,1.598-1.513,2.789c0.287,0.974,1.178,1.609,2.146,1.609
		c0.209,0,0.426-0.03,0.64-0.091C260.454,41.009,261.136,39.76,260.784,38.575z M269.788,46.35h-0.006
		c-1.226-0.173-2.356,0.682-2.53,1.908c-0.173,1.226,0.677,2.362,1.903,2.536c0.107,0.012,0.214,0.017,0.317,0.017
		c1.1,0,2.057-0.807,2.219-1.925C271.864,47.66,271.009,46.523,269.788,46.35z M269.418,24.582c0.102,0,0.216-0.006,0.324-0.024
		c1.226-0.18,2.075-1.316,1.895-2.542c-0.18-1.225-1.315-2.075-2.541-1.896c-1.227,0.179-2.076,1.316-1.896,2.541
		C267.361,23.781,268.318,24.582,269.418,24.582z M262.636,27.704c0.527,0,1.052-0.185,1.478-0.557
		c0.932-0.814,1.028-2.223,0.214-3.164c-0.812-0.933-2.229-1.027-3.163-0.215c-0.933,0.814-1.035,2.231-0.215,3.165
		C261.392,27.441,262.014,27.704,262.636,27.704z M257.99,33.9c0.208,0.058,0.418,0.089,0.627,0.089
		c0.969,0,1.867-0.634,2.154-1.615c0.347-1.189-0.341-2.434-1.532-2.78c-1.183-0.348-2.427,0.34-2.774,1.525
		C256.119,32.308,256.799,33.552,257.99,33.9z M198.756,33.207c-1.238,0-2.243,1.005-2.243,2.242c0,1.238,1.005,2.244,2.243,2.244
		c1.238,0,2.243-1.005,2.243-2.244C200.999,34.212,199.994,33.207,198.756,33.207z M185.24,26.585c-1.238,0-2.244,1.006-2.244,2.243
		c0,1.238,1.005,2.243,2.244,2.243c1.237,0,2.241-1.005,2.241-2.243C187.481,27.591,186.477,26.585,185.24,26.585z M185.24,19.959
		c-1.238,0-2.244,1.005-2.244,2.243c0,1.238,1.005,2.242,2.244,2.242c1.237,0,2.241-1.004,2.241-2.242
		C187.481,20.964,186.477,19.959,185.24,19.959z M198.767,19.959c-1.239,0-2.244,1.005-2.244,2.243c0,1.238,1.005,2.242,2.244,2.242
		c1.236,0,2.241-1.004,2.241-2.242C201.008,20.964,200.004,19.959,198.767,19.959z M204.277,29.826
		c-1.238,0-2.243,1.005-2.243,2.243c0,1.238,1.005,2.243,2.243,2.243s2.243-1.005,2.243-2.243
		C206.52,30.831,205.515,29.826,204.277,29.826z M204.277,23.355c-1.238,0-2.243,1.006-2.243,2.244c0,1.238,1.005,2.243,2.243,2.243
		s2.243-1.005,2.243-2.243C206.52,24.361,205.515,23.355,204.277,23.355z M242.279,30.49c0.419,0,0.843-0.119,1.219-0.365
		c1.041-0.676,1.334-2.062,0.659-3.104c-0.677-1.035-2.063-1.334-3.104-0.658c-1.034,0.676-1.332,2.063-0.657,3.104
		C240.826,30.125,241.543,30.49,242.279,30.49z M235.737,45.465c-1.13,0.515-1.62,1.847-1.107,2.972
		c0.378,0.825,1.19,1.31,2.039,1.31c0.317,0,0.635-0.065,0.934-0.203c1.13-0.521,1.62-1.849,1.106-2.973
		C238.189,45.441,236.861,44.95,235.737,45.465z M243.523,40.721c-1.047-0.669-2.434-0.364-3.104,0.678
		c-0.67,1.04-0.364,2.428,0.676,3.097c0.378,0.239,0.796,0.359,1.208,0.359c0.741,0,1.46-0.365,1.891-1.028
		C244.862,42.779,244.563,41.393,243.523,40.721z M229.601,46.35c-1.227-0.174-2.362,0.682-2.536,1.908
		c-0.174,1.226,0.682,2.362,1.907,2.536c0.109,0.012,0.211,0.024,0.318,0.024c1.1,0,2.057-0.813,2.218-1.932
		C231.682,47.66,230.827,46.523,229.601,46.35z M220.798,44.013c-0.812,0.937-0.712,2.356,0.228,3.162
		c0.425,0.366,0.952,0.545,1.465,0.545c0.635,0,1.256-0.257,1.699-0.772c0.814-0.938,0.706-2.355-0.228-3.162
		C223.023,42.97,221.606,43.079,220.798,44.013z M244.396,33.152c-1.238,0.006-2.236,1.016-2.236,2.254c0,0.012,0,0.029,0.006,0.042
		h-0.006c0,1.244,1.004,2.244,2.243,2.244c1.244,0,2.249-1,2.249-2.244v-0.059C246.646,34.151,245.635,33.145,244.396,33.152z
		 M220.594,38.575c-0.347-1.189-1.595-1.864-2.786-1.519c-1.184,0.354-1.865,1.604-1.512,2.789c0.286,0.974,1.177,1.609,2.146,1.609
		c0.21,0,0.426-0.03,0.64-0.091C220.272,41.009,220.948,39.765,220.594,38.575z M235.694,25.419c0.3,0.138,0.612,0.197,0.921,0.197
		c0.856,0,1.669-0.485,2.046-1.315c0.514-1.125,0.011-2.457-1.111-2.965c-1.131-0.515-2.465-0.013-2.973,1.116
		C234.068,23.577,234.565,24.905,235.694,25.419z M106.616,19.959c-1.239,0-2.237,1.005-2.237,2.243
		c0,1.238,0.998,2.242,2.237,2.242c1.244,0,2.248-1.004,2.248-2.242C108.864,20.964,107.859,19.959,106.616,19.959z M113.468,19.959
		c-1.238,0-2.236,1.005-2.236,2.243c0,1.238,0.998,2.242,2.236,2.242c1.245,0,2.249-1.004,2.249-2.242
		C115.717,20.964,114.713,19.959,113.468,19.959z M120.001,21.807c-1.238,0-2.237,1.005-2.237,2.244
		c0,1.238,0.999,2.242,2.237,2.242c1.244,0,2.249-1.004,2.249-2.242C122.25,22.812,121.245,21.807,120.001,21.807z M124.751,26.64
		c-1.238,0-2.236,1.007-2.236,2.244c0,1.238,0.998,2.243,2.236,2.243c1.244,0,2.247-1.005,2.247-2.243
		C126.998,27.647,125.995,26.64,124.751,26.64z M106.616,26.585c-1.239,0-2.237,1.006-2.237,2.243c0,1.238,0.998,2.243,2.237,2.243
		c1.244,0,2.248-1.005,2.248-2.243C108.864,27.591,107.859,26.585,106.616,26.585z M106.616,46.464
		c-1.239,0-2.237,1.007-2.237,2.242c0,1.238,0.998,2.243,2.237,2.243c1.244,0,2.248-1.005,2.248-2.243
		C108.864,47.47,107.859,46.464,106.616,46.464z M106.616,39.833c-1.239,0-2.237,1.009-2.237,2.248c0,1.238,0.998,2.242,2.237,2.242
		c1.244,0,2.248-1.003,2.248-2.242C108.864,40.842,107.859,39.833,106.616,39.833z M106.616,33.212
		c-1.239,0-2.237,0.999-2.237,2.242c0,1.238,0.998,2.242,2.237,2.242c1.244,0,2.248-1.004,2.248-2.242
		C108.864,34.211,107.859,33.212,106.616,33.212z M192.008,19.959c-1.238,0-2.243,1.005-2.243,2.243
		c0,1.238,1.005,2.242,2.243,2.242c1.238,0,2.243-1.004,2.243-2.242C194.251,20.964,193.246,19.959,192.008,19.959z"/>
	<g>
		<path fill="#627CFF" d="M126.494,33.192c-0.008,0-0.016,0-0.023,0c-1.157,0.012-2.084,0.959-2.072,2.114l0.001,0.146
			c0,6.096-4.958,11.101-11.053,11.156c-1.156,0.011-2.085,0.958-2.075,2.113c0.011,1.15,0.947,2.074,2.093,2.074
			c0.006,0,0.013,0,0.02,0c8.381-0.078,15.201-6.96,15.201-15.343l-0.001-0.189C128.573,34.114,127.639,33.192,126.494,33.192z"/>
		<path fill="#627CFF" d="M158.291,33.357h-11.308V22.052c0-1.156-0.938-2.094-2.093-2.094c-1.156,0-2.092,0.938-2.092,2.094V35.45
			c0,1.156,0.937,2.094,2.092,2.094h13.401c1.156,0,2.094-0.938,2.094-2.094C160.385,34.295,159.447,33.357,158.291,33.357z"/>
		<path fill="#627CFF" d="M65.586,20.108H52.337c-1.155,0-2.092,0.938-2.092,2.093V35.44c0,1.155,0.937,2.093,2.092,2.093
			c1.156,0,2.093-0.939,2.093-2.093V24.294h11.155c1.158,0,2.095-0.937,2.095-2.093C67.681,21.046,66.744,20.108,65.586,20.108z"/>
		<path fill="#627CFF" d="M83.726,33.207c-1.156,0-2.094,0.938-2.094,2.094V48.85c0,1.156,0.938,2.093,2.094,2.093
			c1.155,0,2.092-0.937,2.092-2.093V35.301C85.818,34.146,84.881,33.207,83.726,33.207z"/>
		<path fill="#627CFF" d="M192.227,33.357h-6.99c-1.157,0-2.093,0.938-2.093,2.093V48.85c0,1.156,0.936,2.093,2.093,2.093
			c1.155,0,2.093-0.937,2.093-2.093V37.544h4.898c1.156,0,2.093-0.938,2.093-2.094C194.32,34.295,193.383,33.357,192.227,33.357z"/>
		<path fill="#627CFF" d="M308.463,46.61h-4.681V35.301c0-1.155-0.937-2.093-2.092-2.093c-1.157,0-2.094,0.938-2.094,2.093v13.402
			c0,1.156,0.937,2.093,2.094,2.093h6.773c1.156,0,2.093-0.937,2.093-2.093C310.557,47.546,309.619,46.61,308.463,46.61z"/>
		<path fill="#627CFF" d="M229.018,20.252c-5.922,0.827-10.854,5.068-12.564,10.803c-0.329,1.109,0.3,2.276,1.408,2.604
			c0.183,0.055,0.367,0.084,0.549,0.088c0.921,0.022,1.779-0.57,2.054-1.496c1.245-4.169,4.828-7.253,9.132-7.853
			c1.144-0.16,1.944-1.219,1.784-2.363C231.222,20.89,230.167,20.093,229.018,20.252z"/>
		<path fill="#627CFF" d="M281.492,26.682c-0.982,0.612-1.282,1.902-0.671,2.884c1.097,1.762,1.677,3.798,1.677,5.886
			c0,4.441-2.629,8.457-6.699,10.232c-1.059,0.463-1.544,1.696-1.081,2.757c0.344,0.786,1.113,1.256,1.921,1.256
			c0.278,0,0.563-0.057,0.836-0.174c5.595-2.444,9.209-7.966,9.209-14.071c0-2.871-0.799-5.672-2.309-8.099
			C283.764,26.372,282.472,26.072,281.492,26.682z"/>
	</g>
</g>
</svg>
